<svg width="18" height="18" viewBox="0 0 18 18" fill="none" xmlns="http://www.w3.org/2000/svg">
<g clip-path="url(#clip0_5_2336)">
<path d="M1.87793 14.5747V8.57471" stroke="white" stroke-linecap="round" stroke-linejoin="round"/>
<path d="M1.12793 14.5747H4.87793" stroke="white" stroke-linecap="round" stroke-linejoin="round"/>
<path d="M0.37793 17.5747H17.6279" stroke="white" stroke-linecap="round" stroke-linejoin="round"/>
<path d="M0.37793 16.0747H17.6279" stroke="white" stroke-linecap="round" stroke-linejoin="round"/>
<path d="M1.12793 8.57471H4.87793" stroke="white" stroke-linecap="round" stroke-linejoin="round"/>
<path d="M7.12793 14.5747H10.8779" stroke="white" stroke-linecap="round" stroke-linejoin="round"/>
<path d="M7.12793 8.57471H10.8779" stroke="white" stroke-linecap="round" stroke-linejoin="round"/>
<path d="M4.12793 14.5747V8.57471" stroke="white" stroke-linecap="round" stroke-linejoin="round"/>
<path d="M7.87793 14.5747V8.57471" stroke="white" stroke-linecap="round" stroke-linejoin="round"/>
<path d="M10.1279 14.5747V8.57471" stroke="white" stroke-linecap="round" stroke-linejoin="round"/>
<path d="M13.1279 14.5747H16.8779" stroke="white" stroke-linecap="round" stroke-linejoin="round"/>
<path d="M13.1279 8.57471H16.8779" stroke="white" stroke-linecap="round" stroke-linejoin="round"/>
<path d="M13.8779 14.5747V8.57471" stroke="white" stroke-linecap="round" stroke-linejoin="round"/>
<path d="M16.1279 14.5747V8.57471" stroke="white" stroke-linecap="round" stroke-linejoin="round"/>
<path d="M1.23743 6.40338C1.17565 6.45133 1.1304 6.51739 1.10802 6.59233C1.08565 6.66726 1.08726 6.74732 1.11263 6.8213C1.13801 6.89527 1.18588 6.95947 1.24954 7.00489C1.3132 7.05031 1.38947 7.0747 1.46768 7.07463H16.5427C16.6208 7.07481 16.6971 7.05057 16.7608 7.0053C16.8245 6.96003 16.8725 6.89599 16.898 6.82213C16.9235 6.74827 16.9253 6.66828 16.9032 6.59333C16.881 6.51839 16.836 6.45224 16.7744 6.40413L9.25718 0.505376C9.19123 0.453801 9.10991 0.425781 9.02618 0.425781C8.94245 0.425781 8.86114 0.453801 8.79518 0.505376L1.23743 6.40338Z" stroke="white" stroke-linecap="round" stroke-linejoin="round"/>
</g>
<defs>
<clipPath id="clip0_5_2336">
<rect width="18" height="18" fill="white"/>
</clipPath>
</defs>
</svg>
