<svg width="18" height="18" viewBox="0 0 18 18" fill="none" xmlns="http://www.w3.org/2000/svg">
<path d="M9 3.75C4.26975 3.75 1.97475 8.01225 1.5675 8.856C1.54546 8.9008 1.534 8.95007 1.534 9C1.534 9.04993 1.54546 9.0992 1.5675 9.144C1.974 9.98775 4.269 14.25 9 14.25C13.731 14.25 16.0252 9.98775 16.4325 9.144C16.4545 9.0992 16.466 9.04993 16.466 9C16.466 8.95007 16.4545 8.9008 16.4325 8.856C16.026 8.01225 13.731 3.75 9 3.75Z" stroke="#BDB5FF" stroke-width="1.5" stroke-linecap="round" stroke-linejoin="round"/>
<path d="M9 11.25C10.2426 11.25 11.25 10.2426 11.25 9C11.25 7.75736 10.2426 6.75 9 6.75C7.75736 6.75 6.75 7.75736 6.75 9C6.75 10.2426 7.75736 11.25 9 11.25Z" stroke="#BDB5FF" stroke-width="1.5" stroke-linecap="round" stroke-linejoin="round"/>
</svg>
