<svg width="12" height="21" viewBox="0 0 12 21" fill="none" xmlns="http://www.w3.org/2000/svg">
<path d="M10.2315 5.69904V0.799316H1.10184V5.69904C1.10184 7.50895 2.15525 9.0719 3.68134 9.80802C4.02609 9.97429 4.25 10.3183 4.25 10.7016V10.7609C4.25 11.1442 4.02609 11.4881 3.68134 11.6544C2.15525 12.3905 1.10184 13.9534 1.10184 15.7634V20.663H10.2315V15.7633C10.2315 13.9534 9.17809 12.3905 7.652 11.6543C7.30725 11.4881 7.08334 11.1441 7.08334 10.7608V10.7015C7.08334 10.3182 7.30725 9.97429 7.652 9.80793C9.17809 9.0719 10.2315 7.50904 10.2315 5.69904Z" fill="#FFE0C3"/>
<path d="M9.56483 16.0114C9.42675 16.0114 9.31483 15.9003 9.31483 15.7631C9.31483 14.369 8.50492 13.0777 7.2515 12.4731C7.12733 12.4132 7.0755 12.2646 7.13583 12.1413C7.19625 12.018 7.34575 11.9666 7.46992 12.0264C8.89442 12.7135 9.81483 14.1802 9.81483 15.763C9.81483 15.9003 9.70292 16.0114 9.56483 16.0114Z" fill="#FCF9DE"/>
<path d="M6.01467 11.6543C6.35942 11.488 6.58334 11.1441 6.58334 10.7608V10.7015C6.58334 10.3182 6.35942 9.97429 6.01467 9.80793C4.48859 9.07182 3.43517 7.50895 3.43517 5.69895V0.799316H1.10184V5.69904C1.10184 7.50895 2.15525 9.0719 3.68134 9.80802C4.02609 9.97437 4.25 10.3183 4.25 10.7016V10.7609C4.25 11.1442 4.02609 11.4881 3.68134 11.6544C2.15525 12.3905 1.10184 13.9534 1.10184 15.7634V20.663H3.43517V15.7633C3.43517 13.9534 4.48859 12.3905 6.01467 11.6543Z" fill="#FFC691"/>
<path d="M2.29242 7.39453C2.91325 8.62443 4.1865 9.47021 5.654 9.47021H5.67925C7.14675 9.47021 8.42 8.62443 9.04084 7.39453H2.29242V7.39453Z" fill="#FFA046"/>
<path d="M9.44441 19.3757V18.7588C9.44441 16.6794 7.75541 14.9878 5.67924 14.9878H5.65399C3.57791 14.9878 1.88882 16.6794 1.88882 18.7588V19.3757H9.44441Z" fill="#FFA046"/>
<rect x="5.33334" y="8.68164" width="0.666666" height="6.62124" fill="#FFA046"/>
<path d="M3.43517 15.7632C3.43517 15.7467 3.43592 15.7304 3.43608 15.7139C2.49908 16.4005 1.88892 17.5092 1.88892 18.7585V19.3754H3.43525V15.7632H3.43517Z" fill="#E8882E"/>
<path d="M5.33334 12.0598C5.54293 11.9089 5.76593 11.7756 6.00001 11.6616V9.80053C5.76593 9.68656 5.54293 9.55331 5.33334 9.40234V12.0598Z" fill="#E8882E"/>
<path d="M5.41934 9.46243C4.68067 8.95615 4.09884 8.23766 3.76117 7.39453H2.29242C2.87992 8.55838 4.05167 9.37776 5.41934 9.46243Z" fill="#E8882E"/>
<path d="M10.8592 2.5466H0.474167C0.21225 2.5466 0 2.33572 0 2.07567V1.28344C0 1.0233 0.212333 0.8125 0.474167 0.8125H10.8592C11.1211 0.8125 11.3333 1.02339 11.3333 1.28344V2.07567C11.3333 2.33572 11.121 2.5466 10.8592 2.5466Z" fill="#FF7C00"/>
<path d="M0.474167 18.916H10.8592C11.1211 18.916 11.3333 19.1269 11.3333 19.387V20.1792C11.3333 20.4393 11.121 20.6501 10.8592 20.6501H0.474167C0.21225 20.6501 0 20.4392 0 20.1792V19.387C0 19.1269 0.212333 18.916 0.474167 18.916Z" fill="#FF7C00"/>
<path d="M2.33333 2.07567V1.28352C2.33333 1.0233 2.54567 0.8125 2.8075 0.8125H0.474167C0.21225 0.8125 0 1.02339 0 1.28352V2.07567C0 2.3358 0.212333 2.5466 0.474167 2.5466H2.8075C2.54567 2.5466 2.33333 2.33572 2.33333 2.07567Z" fill="#AA6019"/>
<path d="M2.33333 20.1791V19.387C2.33333 19.1268 2.54567 18.916 2.8075 18.916H0.474167C0.21225 18.916 0 19.1269 0 19.387V20.1791C0 20.4393 0.212333 20.65 0.474167 20.65H2.8075C2.54567 20.6501 2.33333 20.4393 2.33333 20.1791Z" fill="#AA6019"/>
</svg>
