<svg width="18" height="18" viewBox="0 0 18 18" fill="none" xmlns="http://www.w3.org/2000/svg">
<g clip-path="url(#clip0_5_2311)">
<path d="M1.15207 3.44629C1.4783 4.32054 2.09844 4.98224 2.73149 5.45073" stroke="white" stroke-width="1.75" stroke-linecap="round" stroke-linejoin="round"/>
<path d="M8.67919 6.30225H6.29422" stroke="white" stroke-width="1.75" stroke-linecap="round" stroke-linejoin="round"/>
<path d="M12.6431 8.23368C12.4655 8.23368 12.3216 8.08977 12.3216 7.91225C12.3216 7.73473 12.4655 7.59082 12.6431 7.59082" stroke="white" stroke-width="1.75" stroke-linecap="round" stroke-linejoin="round"/>
<path d="M12.643 8.23368C12.8206 8.23368 12.9645 8.08977 12.9645 7.91225C12.9645 7.73473 12.8206 7.59082 12.643 7.59082" stroke="white" stroke-width="1.75" stroke-linecap="round" stroke-linejoin="round"/>
<path d="M13.6338 1.64101V4.30768C15.6426 5.14468 16.0043 6.57297 16.0043 8.43933L17.1293 9.36343V12.2161C16.4662 13.6425 15.2408 14.3857 13.6338 14.9551V16.2206C13.6338 16.5757 13.3459 16.8634 12.991 16.8634H10.741C10.386 16.8634 10.0982 16.5757 10.0982 16.2206V14.9551H6.06023V16.1202C6.06023 16.4753 5.77241 16.763 5.41738 16.763H3.14724C2.79217 16.763 2.50433 16.4759 2.50437 16.1208C2.50446 15.3419 2.50455 14.1011 2.5043 13.8433C2.50423 13.7835 2.38586 13.455 2.23305 12.9461C1.78558 11.4558 1.04284 8.94064 2.11111 6.57297C3.00668 4.58811 5.17498 3.07396 9.85697 3.33665C10.5293 1.56069 12.3078 1.09715 13.216 1.13819C13.4745 1.14988 13.6338 1.38225 13.6338 1.64101Z" stroke="white" stroke-width="1.75" stroke-linecap="round" stroke-linejoin="round"/>
</g>
<defs>
<clipPath id="clip0_5_2311">
<rect width="18" height="18" fill="white"/>
</clipPath>
</defs>
</svg>
