<svg width="24" height="24" viewBox="0 0 24 24" fill="none" xmlns="http://www.w3.org/2000/svg">
<path d="M16.2222 1.6C15.7252 1.6 15.3222 2.00294 15.3222 2.5C15.3222 2.99706 15.7252 3.4 16.2222 3.4V2.5V1.6ZM22.4 16.2222C22.4 15.7252 21.9971 15.3222 21.5 15.3222C21.0029 15.3222 20.6 15.7252 20.6 16.2222H21.5H22.4ZM16.2222 20.6C15.7252 20.6 15.3222 21.0029 15.3222 21.5C15.3222 21.9971 15.7252 22.4 16.2222 22.4V21.5V20.6ZM16.2222 20.6C15.7252 20.6 15.3222 21.0029 15.3222 21.5C15.3222 21.9971 15.7252 22.4 16.2222 22.4V21.5V20.6ZM7.77778 22.4C8.27483 22.4 8.67778 21.9971 8.67778 21.5C8.67778 21.0029 8.27483 20.6 7.77778 20.6V21.5V22.4ZM1.6 7.77778C1.6 8.27483 2.00294 8.67778 2.5 8.67778C2.99706 8.67778 3.4 8.27483 3.4 7.77778H2.5H1.6ZM16.2222 2.5V3.4H18.8611V2.5V1.6H16.2222V2.5ZM18.8611 2.5V3.4C19.8215 3.4 20.6 4.17853 20.6 5.13889H21.5H22.4C22.4 3.18441 20.8156 1.6 18.8611 1.6V2.5ZM21.5 5.13889H20.6V7.77778H21.5H22.4V5.13889H21.5ZM21.5 16.2222H20.6V18.8611H21.5H22.4V16.2222H21.5ZM21.5 18.8611H20.6C20.6 19.8215 19.8215 20.6 18.8611 20.6V21.5V22.4C20.8156 22.4 22.4 20.8156 22.4 18.8611H21.5ZM18.8611 21.5V20.6H16.2222V21.5V22.4H18.8611V21.5ZM7.77778 21.5V20.6H5.13889V21.5V22.4H7.77778V21.5ZM5.13889 21.5V20.6C4.17853 20.6 3.4 19.8215 3.4 18.8611H2.5H1.6C1.6 20.8156 3.18441 22.4 5.13889 22.4V21.5ZM2.5 18.8611H3.4V16.2222H2.5H1.6V18.8611H2.5ZM2.5 7.77778H3.4V5.13889H2.5H1.6V7.77778H2.5ZM2.5 5.13889H3.4C3.4 4.17853 4.17853 3.4 5.13889 3.4V2.5V1.6C3.18441 1.6 1.6 3.18441 1.6 5.13889H2.5ZM5.13889 2.5V3.4H7.77778V2.5V1.6H5.13889V2.5Z" fill="#F6F7F8"/>
<rect x="7.5" y="7.5" width="9" height="9" rx="2" stroke="#F6F7F8" stroke-width="1.8" stroke-linecap="round" stroke-linejoin="round"/>
</svg>
