<svg width="22" height="22" viewBox="0 0 22 22" fill="none" xmlns="http://www.w3.org/2000/svg">
<path d="M15.2222 0.6C14.7252 0.6 14.3222 1.00294 14.3222 1.5C14.3222 1.99706 14.7252 2.4 15.2222 2.4V1.5V0.6ZM21.4 15.2222C21.4 14.7252 20.9971 14.3222 20.5 14.3222C20.0029 14.3222 19.6 14.7252 19.6 15.2222H20.5H21.4ZM15.2222 19.6C14.7252 19.6 14.3222 20.0029 14.3222 20.5C14.3222 20.9971 14.7252 21.4 15.2222 21.4V20.5V19.6ZM15.2222 19.6C14.7252 19.6 14.3222 20.0029 14.3222 20.5C14.3222 20.9971 14.7252 21.4 15.2222 21.4V20.5V19.6ZM6.77778 21.4C7.27483 21.4 7.67778 20.9971 7.67778 20.5C7.67778 20.0029 7.27483 19.6 6.77778 19.6V20.5V21.4ZM0.6 6.77778C0.6 7.27483 1.00294 7.67778 1.5 7.67778C1.99706 7.67778 2.4 7.27483 2.4 6.77778H1.5H0.6ZM15.2222 1.5V2.4H17.8611V1.5V0.6H15.2222V1.5ZM17.8611 1.5V2.4C18.8215 2.4 19.6 3.17853 19.6 4.13889H20.5H21.4C21.4 2.18441 19.8156 0.6 17.8611 0.6V1.5ZM20.5 4.13889H19.6V6.77778H20.5H21.4V4.13889H20.5ZM20.5 15.2222H19.6V17.8611H20.5H21.4V15.2222H20.5ZM20.5 17.8611H19.6C19.6 18.8215 18.8215 19.6 17.8611 19.6V20.5V21.4C19.8156 21.4 21.4 19.8156 21.4 17.8611H20.5ZM17.8611 20.5V19.6H15.2222V20.5V21.4H17.8611V20.5ZM6.77778 20.5V19.6H4.13889V20.5V21.4H6.77778V20.5ZM4.13889 20.5V19.6C3.17853 19.6 2.4 18.8215 2.4 17.8611H1.5H0.6C0.6 19.8156 2.18441 21.4 4.13889 21.4V20.5ZM1.5 17.8611H2.4V15.2222H1.5H0.6V17.8611H1.5ZM1.5 6.77778H2.4V4.13889H1.5H0.6V6.77778H1.5ZM1.5 4.13889H2.4C2.4 3.17853 3.17853 2.4 4.13889 2.4V1.5V0.6C2.18441 0.6 0.6 2.18441 0.6 4.13889H1.5ZM4.13889 1.5V2.4H6.77778V1.5V0.6H4.13889V1.5Z" fill="#F6F7F8"/>
</svg>
