<svg width="28" height="28" viewBox="0 0 28 28" fill="none" xmlns="http://www.w3.org/2000/svg">
<path fill-rule="evenodd" clip-rule="evenodd" d="M5.11111 7.5H22.8889L23.3393 14.7964L23.7379 21.2536C23.88 23.5552 22.0515 25.5 19.7455 25.5H8.25453C5.94846 25.5 4.12005 23.5552 4.26213 21.2536L5.11111 7.5Z" stroke="white" stroke-width="1.6" stroke-linecap="round" stroke-linejoin="round"/>
<path fill-rule="evenodd" clip-rule="evenodd" d="M4.34944 21H23.661L23.6761 21.1996C23.8509 23.5205 22.0149 25.5 19.6874 25.5H8.32266C5.99146 25.5 4.15418 23.5145 4.33466 21.1903L4.34944 21Z" fill="white" fill-opacity="0.56" stroke="white" stroke-width="1.6" stroke-linecap="round" stroke-linejoin="round"/>
<path d="M9 9V7.5C9 4.73858 11.2386 2.5 14 2.5C16.7614 2.5 19 4.73858 19 7.5V9" stroke="white" stroke-width="1.6" stroke-linecap="round" stroke-linejoin="round"/>
</svg>
