<svg width="18" height="18" viewBox="0 0 18 18" fill="none" xmlns="http://www.w3.org/2000/svg">
<path fill-rule="evenodd" clip-rule="evenodd" d="M16.3687 9.86368C16.2206 9.42516 15.9748 9.02607 15.65 8.69684C15.3251 8.36754 14.9296 8.11658 14.4935 7.96312C14.0948 7.8207 13.6704 7.76436 13.2484 7.79787C13.2484 7.73777 13.1959 3.3807 12.9109 2.80978C12.8556 2.67877 12.7694 2.56316 12.6596 2.47288C12.5498 2.38259 12.4199 2.32033 12.2808 2.29144C9.43058 1.68295 8.17793 2.24637 6.3778 2.55437C5.51522 2.69709 4.31512 2.90744 4.27011 3.75631C4.3651 4.50405 4.42018 5.25634 4.43513 6.00996C4.32718 8.6043 4.36724 11.2028 4.55514 13.7926C4.5221 14.5741 4.69271 15.3508 5.05019 16.0462C5.52272 16.6847 6.51281 16.4519 7.22537 16.4068L9.38558 16.2641C9.45518 16.2641 9.52193 16.2364 9.5712 16.1871C9.6204 16.1377 9.64808 16.0709 9.64808 16.0011C9.64808 15.9314 9.6204 15.8645 9.5712 15.8152C9.52193 15.7659 9.45518 15.7382 9.38558 15.7382L7.88543 15.7758C7.93793 14.326 7.06786 13.8902 5.74775 13.2066C5.69524 13.2066 5.47772 13.0113 5.40272 13.0564C5.37409 13.0268 5.33768 13.006 5.2977 12.9963C5.21519 10.6975 5.2977 8.20349 5.2977 6.36303C5.2977 5.95738 6.3928 6.19777 7.27788 4.56011C7.57928 4.06823 7.69876 3.486 7.61543 2.91495C8.35921 2.64454 9.15105 2.53198 9.94058 2.58441C10.0497 3.31448 10.3616 3.9991 10.8407 4.56011C11.2592 4.94825 11.7797 5.20884 12.3408 5.31133V5.84469C12.3408 6.0325 12.7084 7.27951 12.7759 8.05326C12.2508 8.76692 12.9709 10.7726 12.7759 12.5605C12.1757 11.8059 11.4043 11.2058 10.5257 10.8102C9.53558 10.5623 8.52301 11.3661 9.34808 12.7634C10.1053 13.7796 10.9244 14.748 11.8008 15.6631C12.0558 15.9711 12.0783 16.0538 12.0408 16.8124C12.0512 17.0825 12.0131 17.3522 11.9283 17.6087C11.8945 17.6605 11.8826 17.7237 11.8952 17.7843C11.9079 17.8448 11.9441 17.8979 11.9958 17.9318C12.0475 17.9657 12.1106 17.9775 12.171 17.9648C12.2315 17.9522 12.2845 17.9159 12.3183 17.8642C12.5477 17.1932 12.6095 16.4762 12.4983 15.7758C12.2958 15.0245 9.21308 12.1624 9.81308 11.6065C10.4132 11.0506 11.8983 12.801 12.5433 13.5146C12.704 13.6396 12.9025 13.7059 13.1059 13.7024C14.291 13.5222 13.2934 9.47308 13.496 8.62421C14.048 8.62128 14.582 8.82183 14.996 9.18757C15.5198 9.78346 15.8792 10.5059 16.0387 11.2835C16.2893 12.198 16.3124 13.16 16.1062 14.0855C16.0237 14.4537 15.2961 15.4452 15.3561 15.8358C15.3892 16.5064 15.4821 17.1726 15.6336 17.8266C15.6575 17.8923 15.7064 17.9459 15.7697 17.9755C15.833 18.0051 15.9055 18.0082 15.9712 17.9844C16.0368 17.9605 16.0903 17.9114 16.1198 17.848C16.1494 17.7846 16.1525 17.7121 16.1287 17.6463C16.024 17.0283 15.9713 16.4026 15.9712 15.7758C16.0237 15.7758 16.0237 15.6255 16.0837 15.5128C16.2187 15.2499 16.4287 14.9043 16.5712 14.6414C17.2462 13.4319 16.9163 11.0506 16.3687 9.86368ZM5.99527 14.2733C6.89534 15.0245 7.14286 15.0245 7.30788 15.7758H7.20287C6.82783 15.7758 5.82275 15.941 5.60523 15.6255C5.35976 14.982 5.26481 14.2907 5.32771 13.6048L5.99527 14.2733ZM6.74533 3.91407C6.42579 4.33604 6.08008 4.73749 5.71024 5.11601C5.12519 5.80713 5.2902 5.49162 5.2227 4.79299C5.08019 3.53846 5.06519 3.65866 5.47772 3.49339C6.00836 3.31512 6.54943 3.1696 7.09786 3.05768C7.04609 3.36604 6.9256 3.65876 6.74533 3.91407ZM11.5457 4.01173C11.4557 3.92158 9.96308 2.43417 10.6457 2.60695C11.1353 2.78623 11.6364 2.9318 12.1458 3.04265C12.2468 3.54939 12.2871 4.06636 12.2658 4.58265C12.0024 4.42721 11.7625 4.23497 11.5532 4.01173H11.5457Z" fill="white"/>
<path fill-rule="evenodd" clip-rule="evenodd" d="M17.9964 3.06496C17.9964 2.52409 17.9964 0.811316 17.5613 0.48829C17.1263 0.165268 14.8011 0 12.1533 0C9.25804 0 5.93529 0.150243 4.30764 0.330535C3.41922 0.457585 2.53797 0.630597 1.66741 0.848873C1.28488 0.939019 0.729825 0.848873 0.339791 1.26204C-0.050243 1.67521 0.0472656 2.51658 0.0547662 3.06496C0.0547662 3.47062 -0.12525 4.71013 0.167276 5.01812C0.499291 5.2617 0.903584 5.38609 1.31488 5.37119C2.11932 5.52495 2.94688 5.50961 3.74509 5.32612C3.80477 5.31018 3.85568 5.27115 3.88663 5.21762C3.91758 5.16408 3.92602 5.10043 3.91011 5.04066C3.89419 4.98089 3.85522 4.9299 3.80177 4.89891C3.74832 4.86791 3.68476 4.85946 3.62508 4.8754C2.60906 5.03218 1.57038 4.94462 0.594814 4.61998C0.857339 0.961561 0.519807 1.84799 1.83242 1.61511C3.91011 1.20194 4.39765 1.09677 8.91304 0.954042C9.81311 0.954042 16.2712 0.728679 17.0888 1.08926C17.238 1.74471 17.311 2.41525 17.3063 3.0875C17.3063 3.17013 17.1713 3.74105 17.3063 3.83871C17.1113 3.88379 16.6162 3.83871 16.4137 3.90632C15.7197 3.99959 15.021 4.05476 14.321 4.07159C14.2514 4.07159 14.1846 4.09929 14.1354 4.1486C14.0862 4.19791 14.0585 4.26479 14.0585 4.33452C14.0585 4.40425 14.0862 4.47113 14.1354 4.52043C14.1846 4.56974 14.2514 4.59744 14.321 4.59744C15.0472 4.61007 15.7735 4.57997 16.4962 4.50729C16.7437 4.50729 17.0963 4.5073 17.3738 4.46974C18.2064 4.327 17.9514 3.75608 17.9964 3.06496Z" fill="white"/>
<path fill-rule="evenodd" clip-rule="evenodd" d="M7.91539 7.97057C7.98401 7.95562 8.04386 7.91401 8.08189 7.85482C8.11984 7.7957 8.13281 7.72382 8.11789 7.65509C8.10296 7.58636 8.06141 7.52642 8.00231 7.48836C7.94321 7.45033 7.87151 7.43736 7.80289 7.4523C7.39787 7.51988 7.11287 7.79029 7.05287 8.39121C6.79037 8.26352 6.09287 8.53393 6.10037 8.81937C6.10787 9.10481 6.80537 9.33766 7.11287 9.11983C7.18312 9.45371 7.32376 9.76875 7.52539 10.0437C7.63976 10.1763 7.79689 10.2647 7.96946 10.2934C8.14204 10.3223 8.31919 10.2897 8.47039 10.2015C9.16789 9.82591 9.22038 8.56398 9.58038 8.25601C9.76038 8.09075 9.84288 8.02315 10.0454 8.25601C10.4204 8.71421 10.3229 9.17992 10.2329 9.20997C10.1739 9.22905 10.1247 9.27013 10.0953 9.32474C10.066 9.37935 10.0588 9.4432 10.0754 9.50292C10.1729 9.82591 10.7579 9.6907 10.8254 8.94706C11.0076 9.00873 11.2065 8.99784 11.381 8.91679C11.5555 8.83574 11.6922 8.69062 11.7629 8.5114C11.7144 8.42832 11.649 8.35644 11.5708 8.30048C11.4927 8.24444 11.4036 8.2056 11.3094 8.18645C11.2152 8.16737 11.1181 8.16835 11.0244 8.18938C10.9306 8.21041 10.8423 8.25105 10.7654 8.30859C10.4954 7.41474 9.82038 7.15935 9.36288 7.35465C9.24363 7.41914 9.13069 7.49458 9.02539 7.57997C8.44789 8.00062 8.45539 8.73674 8.17039 9.20997C7.88539 9.68319 8.12539 9.60808 7.91539 9.24752C7.70539 8.88697 7.49537 8.09075 7.91539 7.97057Z" fill="white"/>
</svg>
